# xmcd
#
# Track frame offsets:
#	183
#	23803
#	44505
#	54855
#	78078
#	89265
#	98943
#	114188
#	130138
#	141320
#	153995
#	173778
#
# Disc length: 2575 seconds
#
# Revision: 0
# Processed by: cddbd v1.5.2PL0 Copyright (c) Steve Scherf et al.
# Submitted via: EZCDAudioConverter 2.2.0.1
#
DISCID=8e0a0d0c
DTITLE=Jonathan Pryce - Maria Friedman - Gregg Edelman - John Mark Ainsley - N
DTITLE=at. Symph. Orch. - John Owen Edwards  - Kander John - Cabaret - Nat. Sy
DTITLE=mph. Orch. - John Owen Edwards - 824 
DYEAR=1994
DGENRE=Musical
TTITLE0=Cabaret - Willkommen
TTITLE1=Cabaret - Don't Tell Mama
TTITLE2=Cabaret - The Telephone Song
TTITLE3=Cabaret - Perfectly Marvellous
TTITLE4=Cabaret - Two Ladies
TTITLE5=Cabaret - Tomorrow Belongs To Me
TTITLE6=Cabaret - Why Should I Wake Up
TTITLE7=Cabaret - Maybe This Time
TTITLE8=Cabaret - Sitting Pretty
TTITLE9=Cabaret - If You Could See Her
TTITLE10=Cabaret - Cabaret
TTITLE11=Cabaret - Finale
EXTD=
EXTT0=
EXTT1=
EXTT2=
EXTT3=
EXTT4=
EXTT5=
EXTT6=
EXTT7=
EXTT8=
EXTT9=
EXTT10=
EXTT11=
PLAYORDER=
